<svg width="52" height="52" viewBox="0 0 52 52" fill="none" xmlns="http://www.w3.org/2000/svg">
<path d="M6.50238 39.0006H45.5024" stroke="#0D4880" stroke-width="3" stroke-linecap="round" stroke-linejoin="round"/>
<path d="M9.75226 43.8759H42.2523" stroke="#0D4880" stroke-width="3" stroke-linecap="round" stroke-linejoin="round"/>
<path d="M26.0031 29.2526C30.491 29.2526 34.1292 25.6144 34.1292 21.1264C34.1292 16.6385 30.491 13.0003 26.0031 13.0003C21.5151 13.0003 17.8769 16.6385 17.8769 21.1264C17.8769 25.6144 21.5151 29.2526 26.0031 29.2526Z" stroke="#0D4880" stroke-width="3" stroke-linecap="round" stroke-linejoin="round"/>
<path d="M48.7601 16.2562C46.6037 16.2562 44.5355 15.3995 43.0107 13.8747C41.4858 12.3498 40.6292 10.2817 40.6292 8.12518" stroke="#0D4880" stroke-width="3" stroke-linecap="round" stroke-linejoin="round"/>
<path d="M3.2533 16.256C4.32107 16.256 5.37839 16.0457 6.36489 15.6371C7.35138 15.2285 8.24773 14.6296 9.00277 13.8745C9.7578 13.1195 10.3567 12.2231 10.7653 11.2367C11.174 10.2502 11.3843 9.19284 11.3843 8.12506" stroke="#0D4880" stroke-width="3" stroke-linecap="round" stroke-linejoin="round"/>
<path d="M48.7601 26.0013C46.6037 26.0013 44.5355 26.858 43.0107 28.3828C41.4858 29.9077 40.6292 31.9758 40.6292 34.1323" stroke="#0D4880" stroke-width="3" stroke-linecap="round" stroke-linejoin="round"/>
<path d="M3.25409 26.0013C4.32186 26.0013 5.37918 26.2116 6.36568 26.6202C7.35218 27.0289 8.24853 27.6278 9.00356 28.3828C9.75859 29.1379 10.3575 30.0342 10.7661 31.0207C11.1748 32.0072 11.3851 33.0645 11.3851 34.1323" stroke="#0D4880" stroke-width="3" stroke-linecap="round" stroke-linejoin="round"/>
<path d="M4.87561 34.1256L47.1256 34.1256C48.0231 34.1256 48.7506 33.398 48.7506 32.5006V9.75058C48.7506 8.85312 48.0231 8.12558 47.1256 8.12558L4.87561 8.12558C3.97815 8.12558 3.25061 8.85312 3.25061 9.75058V32.5006C3.25061 33.398 3.97815 34.1256 4.87561 34.1256Z" stroke="#6FA43A" stroke-width="3" stroke-linejoin="round"/>
</svg>
