<svg width="14" height="15" viewBox="0 0 14 15" fill="none" xmlns="http://www.w3.org/2000/svg">
<path d="M3.88889 2.33333C4.31844 2.33333 4.66667 1.98511 4.66667 1.55556C4.66667 1.126 4.31844 0.777778 3.88889 0.777778V2.33333ZM10.1111 0.777778C9.68154 0.777778 9.33333 1.126 9.33333 1.55556C9.33333 1.98511 9.68154 2.33333 10.1111 2.33333V0.777778ZM7.77778 0.777778C7.77778 0.348223 7.42956 0 7 0C6.57045 0 6.22222 0.348223 6.22222 0.777778H7.77778ZM7 7L6.45003 7.54997C6.75377 7.85369 7.24623 7.85369 7.54997 7.54997L7 7ZM9.8833 5.21664C10.187 4.91289 10.187 4.42044 9.8833 4.11669C9.57958 3.81296 9.08709 3.81296 8.78337 4.11669L9.8833 5.21664ZM5.21664 4.11669C4.91289 3.81296 4.42044 3.81296 4.11669 4.11669C3.81296 4.42044 3.81296 4.91289 4.11669 5.21664L5.21664 4.11669ZM0.777778 7.77778C0.348223 7.77778 0 8.12599 0 8.55556C0 8.98512 0.348223 9.33333 0.777778 9.33333V7.77778ZM13.2222 9.33333C13.6518 9.33333 14 8.98512 14 8.55556C14 8.12599 13.6518 7.77778 13.2222 7.77778V9.33333ZM12.4444 3.11111V12.4444H14V3.11111H12.4444ZM11.6667 13.2222H2.33333V14.7778H11.6667V13.2222ZM1.55556 12.4444V3.11111H0V12.4444H1.55556ZM2.33333 2.33333H3.88889V0.777778H2.33333V2.33333ZM10.1111 2.33333H11.6667V0.777778H10.1111V2.33333ZM2.33333 13.2222C1.90378 13.2222 1.55556 12.874 1.55556 12.4444H0C0 13.7331 1.04467 14.7778 2.33333 14.7778V13.2222ZM12.4444 12.4444C12.4444 12.874 12.0962 13.2222 11.6667 13.2222V14.7778C12.9554 14.7778 14 13.7331 14 12.4444H12.4444ZM14 3.11111C14 1.82245 12.9554 0.777778 11.6667 0.777778V2.33333C12.0962 2.33333 12.4444 2.68156 12.4444 3.11111H14ZM1.55556 3.11111C1.55556 2.68156 1.90378 2.33333 2.33333 2.33333V0.777778C1.04467 0.777778 0 1.82245 0 3.11111H1.55556ZM6.22222 0.777778V7H7.77778V0.777778H6.22222ZM8.78337 4.11669L6.45003 6.45003L7.54997 7.54997L9.8833 5.21664L8.78337 4.11669ZM7.54997 6.45003L5.21664 4.11669L4.11669 5.21664L6.45003 7.54997L7.54997 6.45003ZM0.777778 9.33333H2.78895V7.77778H0.777778V9.33333ZM2.78895 9.33333L4.66667 11.211L5.76661 10.1111L3.88889 8.2334L2.78895 9.33333ZM5.76661 11.6667H8.2334V10.1111H5.76661V11.6667ZM9.33333 11.211L11.211 9.33333L10.1111 8.2334L8.2334 10.1111L9.33333 11.211ZM11.211 9.33333H13.2222V7.77778H11.211V9.33333ZM11.211 9.33333V7.77778C10.7985 7.77778 10.4029 7.94166 10.1111 8.2334L11.211 9.33333ZM8.2334 11.6667C8.64593 11.6667 9.04159 11.5028 9.33333 11.211L8.2334 10.1111V11.6667ZM4.66667 11.211C4.95839 11.5028 5.35405 11.6667 5.76661 11.6667V10.1111L4.66667 11.211ZM2.78895 9.33333L3.88889 8.2334C3.59717 7.94166 3.20151 7.77778 2.78895 7.77778V9.33333Z" fill="white"/>
</svg>
