<svg width="52" height="52" viewBox="0 0 52 52" fill="none" xmlns="http://www.w3.org/2000/svg">
<path d="M34.1257 17.875H38.1882C39.2657 17.875 40.299 18.303 41.0609 19.0649C41.8227 19.8267 42.2507 20.8601 42.2507 21.9375V43.0625C42.2507 44.1399 41.8227 45.1733 41.0609 45.9351C40.299 46.697 39.2657 47.125 38.1882 47.125H13.8132C12.7358 47.125 11.7025 46.697 10.9406 45.9351C10.1787 45.1733 9.75073 44.1399 9.75073 43.0625V21.9375C9.75073 20.8601 10.1787 19.8267 10.9406 19.0649C11.7025 18.303 12.7358 17.875 13.8132 17.875H17.8757" stroke="#0D4881" stroke-width="3" stroke-linecap="round" stroke-linejoin="round"/>
<path d="M17.8723 27.6245L25.9984 35.7507L34.1246 27.6245" stroke="#6FA43A" stroke-width="3" stroke-linecap="round" stroke-linejoin="round"/>
<path d="M25.9993 4.87524V34.1252" stroke="#6FA43A" stroke-width="3" stroke-linecap="round" stroke-linejoin="round"/>
</svg>
