<svg width="52" height="52" viewBox="0 0 52 52" fill="none" xmlns="http://www.w3.org/2000/svg">
<path d="M17.8729 17.8752V13.8127C17.8729 12.7353 18.3009 11.702 19.0627 10.9401C19.8246 10.1783 20.8579 9.75024 21.9354 9.75024H43.0604C44.1378 9.75024 45.1711 10.1783 45.933 10.9401C46.6948 11.702 47.1229 12.7353 47.1229 13.8127V38.1877C47.1229 39.2652 46.6948 40.2985 45.933 41.0604C45.1711 41.8222 44.1378 42.2502 43.0604 42.2502H21.9354C20.8579 42.2502 19.8246 41.8222 19.0627 41.0604C18.3009 40.2985 17.8729 39.2652 17.8729 38.1877V34.1252" stroke="#0D4880" stroke-width="3" stroke-linecap="round" stroke-linejoin="round"/>
<path d="M27.6256 34.1272L35.7518 26.001L27.6256 17.8749" stroke="#6FA43A" stroke-width="3" stroke-linecap="round" stroke-linejoin="round"/>
<path d="M4.87418 26.0004H34.1242" stroke="#6FA43A" stroke-width="3" stroke-linecap="round" stroke-linejoin="round"/>
</svg>
