<svg width="52" height="52" viewBox="0 0 52 52" fill="none" xmlns="http://www.w3.org/2000/svg">
<path d="M32.4975 17.8748V13.8123C32.4975 12.7349 32.0695 11.7016 31.3077 10.9397C30.5458 10.1778 29.5125 9.74982 28.435 9.74982H8.93503C7.85759 9.74982 6.82427 10.1778 6.06241 10.9397C5.30054 11.7016 4.87253 12.7349 4.87253 13.8123V38.1873C4.87253 39.2648 5.30054 40.2981 6.06241 41.0599C6.82427 41.8218 7.85759 42.2498 8.93503 42.2498H28.435C29.5125 42.2498 30.5458 41.8218 31.3077 41.0599C32.0695 40.2981 32.4975 39.2648 32.4975 38.1873V34.1248" stroke="#0D4880" stroke-width="3" stroke-linecap="round" stroke-linejoin="round"/>
<path d="M38.9993 17.8753L47.1254 26.0015L38.9993 34.1276" stroke="#6FA43A" stroke-width="3" stroke-linecap="round" stroke-linejoin="round"/>
<path d="M19.3978 26.0004H47.1244" stroke="#6FA43A" stroke-width="3" stroke-linecap="round" stroke-linejoin="round"/>
</svg>
