<svg width="52" height="52" viewBox="0 0 52 52" fill="none" xmlns="http://www.w3.org/2000/svg">
<g clip-path="url(#clip0_3820_6159)">
<path d="M17.8748 1H20.3126C20.5282 1 20.7348 1.08561 20.8872 1.23801C21.0396 1.3904 21.1253 1.5971 21.1253 1.81262C21.1253 2.24365 21.2965 2.65704 21.6013 2.96183C21.9061 3.26662 22.3194 3.43785 22.7505 3.43785H29.2514C29.6825 3.43785 30.0958 3.26662 30.4006 2.96183C30.7054 2.65704 30.8766 2.24365 30.8766 1.81262C30.8766 1.5971 30.9623 1.3904 31.1147 1.23801C31.2671 1.08561 31.4737 1 31.6893 1H34.1271" stroke="#6FA43A" stroke-width="3" stroke-linecap="round" stroke-linejoin="round"/>
<path d="M34.125 1H17.875C15.1826 1 13 3.18261 13 5.875V44.875C13 47.5674 15.1826 49.75 17.875 49.75H34.125C36.8174 49.75 39 47.5674 39 44.875V5.875C39 3.18261 36.8174 1 34.125 1Z" stroke="#0D4880" stroke-width="3" stroke-linecap="round" stroke-linejoin="round"/>
</g>
<defs>
<clipPath id="clip0_3820_6159">
<rect width="52" height="52" fill="white"/>
</clipPath>
</defs>
</svg>
