<svg width="52" height="52" viewBox="0 0 52 52" fill="none" xmlns="http://www.w3.org/2000/svg">
<path d="M16.246 34.1238V4.87378L19.496 6.49878L22.746 4.87378L25.9899 6.49878L29.2775 4.87378L32.496 6.49878L35.7247 4.87378L38.9676 6.49878L42.246 4.87378L45.4971 6.49878L48.746 4.87378V27.6238" stroke="#0D4881" stroke-width="3" stroke-linejoin="round"/>
<path d="M48.749 27.6272V39.0022C48.749 41.1571 47.893 43.2237 46.3693 44.7474C44.8455 46.2712 42.7789 47.1272 40.624 47.1272V47.1272C38.4691 47.1272 36.4025 46.2712 34.8788 44.7474C33.355 43.2237 32.499 41.1571 32.499 39.0022V34.1272H4.87403C4.6601 34.1253 4.44794 34.166 4.24993 34.247C4.05192 34.328 3.87202 34.4476 3.72075 34.5989C3.56947 34.7502 3.44985 34.9301 3.36886 35.1281C3.28787 35.3261 3.24713 35.5383 3.24903 35.7522C3.24903 42.2522 3.93356 47.1272 11.374 47.1272H40.624" stroke="#0D4881" stroke-width="3" stroke-linejoin="round"/>
<path d="M22.7474 14.625H42.2502" stroke="#6FA43A" stroke-width="3" stroke-linecap="round" stroke-linejoin="round"/>
<path d="M29.2495 22.7512H42.2514" stroke="#6FA43A" stroke-width="3" stroke-linecap="round" stroke-linejoin="round"/>
</svg>
