<svg width="52" height="52" viewBox="0 0 52 52" fill="none" xmlns="http://www.w3.org/2000/svg">
<path d="M41.7784 14.6263V11.5794C41.7782 10.8321 41.613 10.0941 41.2947 9.418C40.9764 8.74189 40.5128 8.14437 39.937 7.66807C39.3611 7.19177 38.6873 6.84843 37.9635 6.66254C37.2397 6.47666 36.4838 6.45281 35.7497 6.5927L9.0022 11.1579C7.84065 11.3793 6.79276 11.9991 6.03926 12.9103C5.28576 13.8216 4.87389 14.9673 4.8747 16.1497V21.1263" stroke="#6FA43A" stroke-width="3" stroke-linejoin="round"/>
<path d="M37.3751 32.5022C36.7318 32.5022 36.103 32.3114 35.5681 31.954C35.0333 31.5967 34.6164 31.0887 34.3703 30.4944C34.1241 29.9001 34.0597 29.2462 34.1852 28.6153C34.3107 27.9844 34.6204 27.4048 35.0753 26.95C35.5301 26.4951 36.1097 26.1854 36.7406 26.0599C37.3715 25.9344 38.0254 25.9988 38.6197 26.245C39.214 26.4911 39.722 26.908 40.0793 27.4428C40.4367 27.9777 40.6275 28.6065 40.6275 29.2498C40.6275 30.1124 40.2848 30.9396 39.6749 31.5496C39.0649 32.1595 38.2377 32.5022 37.3751 32.5022Z" fill="#6FA43A"/>
<path d="M42.25 14.6262H9.75C7.05761 14.6262 4.875 16.8088 4.875 19.5012V39.0012C4.875 41.6936 7.05761 43.8762 9.75 43.8762H42.25C44.9424 43.8762 47.125 41.6936 47.125 39.0012V19.5012C47.125 16.8088 44.9424 14.6262 42.25 14.6262Z" stroke="#0D4881" stroke-width="3" stroke-linejoin="round"/>
</svg>
